<svg id='Email_Send_24' width='24' height='24' viewBox='0 0 24 24' xmlns='http://www.w3.org/2000/svg' xmlns:xlink='http://www.w3.org/1999/xlink'><rect width='24' height='24' stroke='none' fill='#000000' opacity='0'/>


<g transform="matrix(0.83 0 0 0.83 12 12)" >
<path style="stroke: none; stroke-width: 1; stroke-dasharray: none; stroke-linecap: butt; stroke-dashoffset: 0; stroke-linejoin: miter; stroke-miterlimit: 4; fill: white; fill-rule: nonzero; opacity: 1;" transform=" translate(-15, -15)" d="M 26 3 C 25.904026142042714 3.0006583581949826 25.80864687942315 3.0151297178191654 25.716797 3.0429688 C 25.68976046237127 3.050306917202327 25.663044228078622 3.0587779232018644 25.636719 3.0683594000000003 L 3.6503906 10.060547 L 3.6503906 10.064453 C 3.2597585643776337 10.210219758159939 3.0005624088856773 10.583057535461814 3 11 C 3.0007408225869683 11.349224834461092 3.1836114229399137 11.672765252777186 3.4824218999999994 11.853516 L 10.164062 17.154297 L 23.373047 6.6269531 L 12.845703 19.835938 L 18.142578 26.513672 C 18.323084316844625 26.815171933439384 18.648596100047126 26.99980154931267 19 27 C 19.416942566116045 26.999437528711955 19.789780373159353 26.740241193134263 19.935547 26.349609 L 19.939453 26.349609 L 26.9375 4.34375 C 26.94465083777267 4.323779951047257 26.951164466503297 4.303587435180673 26.957031 4.2832031 C 26.984870159411347 4.191353198395892 26.999341586528 4.095973901208165 27 4 C 27 3.4477152501692068 26.552284749830793 3 26 3 z" stroke-linecap="round" />
</g>
</svg>